# No. points 24:
v -8.18084 -7.26588 -8.07319
v -8.18084 -7.26588 8.07321
v -8.18084 6.94295 -8.07319
v -8.18084 6.94295 8.07321
v 7.96555 -7.26588 -8.07319
v 7.96555 -7.26588 8.07321
v 7.96555 6.94295 -8.07319
v 7.96555 6.94295 8.07321
v -8.18084 -7.26588 -8.07319
v -8.18084 6.94295 -8.07319
v -8.18084 6.94295 8.07321
v -8.18084 -7.26588 8.07321
v 7.96555 -7.26588 -8.07319
v 7.96555 -7.26588 8.07321
v 7.96555 6.94295 8.07321
v 7.96555 6.94295 -8.07319
v -8.18084 6.94295 -8.07319
v 7.96555 6.94295 -8.07319
v 7.96555 6.94295 8.07321
v -8.18084 6.94295 8.07321
v -8.18084 -7.26588 -8.07319
v -8.18084 -7.26588 8.07321
v 7.96555 -7.26588 8.07321
v 7.96555 -7.26588 -8.07319

# No. normals 36:
vn 0 0 -1
vn 0 0 -1
vn 0 0 1
vn 0 0 1
vn -1 0 0
vn -1 0 0
vn 1 0 0
vn 1 0 0
vn 0 1 0
vn 0 1 0
vn 0 -1 0
vn 0 -1 0
vn 0 0 -1
vn 0 0 1
vn 0 0 -1
vn 0 0 1
vn 0 0 -1
vn 0 0 1
vn 0 0 -1
vn 0 0 1
vn -1 0 0
vn -1 0 0
vn -1 0 0
vn -1 0 0
vn 1 0 0
vn 1 0 0
vn 1 0 0
vn 1 0 0
vn 0 1 0
vn 0 1 0
vn 0 1 0
vn 0 1 0
vn 0 -1 0
vn 0 -1 0
vn 0 -1 0
vn 0 -1 0

# No. texture coordinates 24:
vt 0 0
vt 0 0
vt 0 1
vt 0 1
vt 1 0
vt 1 0
vt 1 1
vt 1 1
vt 1 0
vt 1 1
vt 0 1
vt 0 0
vt 1 0
vt 0 0
vt 0 1
vt 1 1
vt 0 0
vt 1 0
vt 1 1
vt 0 1
vt 0 0
vt 0 1
vt 1 1
vt 1 0

# No. faces 12:
f 7/7/19 5/5/17 1/1/13
f 3/3/15 7/7/19 1/1/13
f 8/8/20 4/4/16 2/2/14
f 6/6/18 8/8/20 2/2/14
f 11/11/23 10/10/22 9/9/21
f 12/12/24 11/11/23 9/9/21
f 15/15/27 14/14/26 13/13/25
f 16/16/28 15/15/27 13/13/25
f 19/19/31 18/18/30 17/17/29
f 20/20/32 19/19/31 17/17/29
f 23/23/35 22/22/34 21/21/33
f 24/24/36 23/23/35 21/21/33


